<?xml version="1.0" encoding="utf-8" ?>
<svg baseProfile="tiny" height="100%" version="1.2" width="100%" xmlns="http://www.w3.org/2000/svg" xmlns:ev="http://www.w3.org/2001/xml-events" xmlns:xlink="http://www.w3.org/1999/xlink"><defs /><rect fill="#9AD9DD" height="538.8" width="1000" x="0" y="0.0" /><text fill="white" text-anchor="middle" x="500.0" y="269.4">fanerozoico</text><rect fill="#F74370" height="4028.2" width="1000" x="0" y="538.8" /><text fill="white" text-anchor="middle" x="500.0" y="2552.9">precambriano</text><rect fill="#F2F91D" height="66.0" width="1000" x="1000" y="0.0" /><text fill="white" text-anchor="middle" x="1500.0" y="33.0">cenozoico</text><rect fill="#67C5CA" height="185.902" width="1000" x="1000" y="66.0" /><text fill="white" text-anchor="middle" x="1500.0" y="158.951">mesozoico</text><rect fill="#99C08D" height="286.898" width="1000" x="1000" y="251.902" /><text fill="white" text-anchor="middle" x="1500.0" y="395.351">paleozoico</text><rect fill="#F0047F" height="1531.0" width="1000" x="1000" y="2500.0" /><text fill="white" text-anchor="middle" x="1500.0" y="3265.5">archeano</text><rect fill="#AE027E" height="536.0" width="1000" x="1000" y="4031.0" /><text fill="white" text-anchor="middle" x="1500.0" y="4299.0">adeano</text><rect fill="#F73563" height="1961.2" width="1000" x="1000" y="538.8" /><text fill="white" text-anchor="middle" x="1500.0" y="1519.4">proterozoico</text><rect fill="#FFE619" height="20.46" width="1000" x="2000" y="2.58" /><text fill="white" text-anchor="middle" x="2500.0" y="12.809999999999999">neogene</text><rect fill="#FD9A52" height="42.96" width="1000" x="2000" y="23.04" /><text fill="white" text-anchor="middle" x="2500.0" y="44.519999999999996">paleogene</text><rect fill="#F9F97F" height="2.58" width="1000" x="2000" y="0.0" /><text fill="white" text-anchor="middle" x="2500.0" y="1.29">quaternario</text><rect fill="#7FC64E" height="77.1" width="1000" x="2000" y="66.0" /><text fill="white" text-anchor="middle" x="2500.0" y="104.55">cretacico</text><rect fill="#34B2C9" height="58.3" width="1000" x="2000" y="143.1" /><text fill="white" text-anchor="middle" x="2500.0" y="172.25">giurassico</text><rect fill="#812B92" height="50.502" width="1000" x="2000" y="201.4" /><text fill="white" text-anchor="middle" x="2500.0" y="226.651">triassico</text><rect fill="#7FA056" height="51.95" width="1000" x="2000" y="486.85" /><text fill="white" text-anchor="middle" x="2500.0" y="512.825">cambriano</text><rect fill="#67A599" height="59.96" width="1000" x="2000" y="298.9" /><text fill="white" text-anchor="middle" x="2500.0" y="328.88">carbonifero</text><rect fill="#CB8C37" height="60.76" width="1000" x="2000" y="358.86" /><text fill="white" text-anchor="middle" x="2500.0" y="389.24">devoniano</text><rect fill="#009270" height="43.75" width="1000" x="2000" y="443.1" /><text fill="white" text-anchor="middle" x="2500.0" y="464.975">ordoviciano</text><rect fill="#F04028" height="46.998" width="1000" x="2000" y="251.902" /><text fill="white" text-anchor="middle" x="2500.0" y="275.40099999999995">permiano</text><rect fill="#B3E1B6" height="23.48" width="1000" x="2000" y="419.62" /><text fill="white" text-anchor="middle" x="2500.0" y="431.36">siluriano</text><rect fill="#DA037F" height="431.0" width="1000" x="2000" y="3600.0" /><text fill="white" text-anchor="middle" x="2500.0" y="3815.5">eoarcheano</text><rect fill="#F768A9" height="400.0" width="1000" x="2000" y="2800.0" /><text fill="white" text-anchor="middle" x="2500.0" y="3000.0">mesoarcheano</text><rect fill="#F99BC1" height="300.0" width="1000" x="2000" y="2500.0" /><text fill="white" text-anchor="middle" x="2500.0" y="2650.0">neoarcheano</text><rect fill="#F4449F" height="400.0" width="1000" x="2000" y="3200.0" /><text fill="white" text-anchor="middle" x="2500.0" y="3400.0">paleoarcheano</text><rect fill="#FDB462" height="600.0" width="1000" x="2000" y="1000.0" /><text fill="white" text-anchor="middle" x="2500.0" y="1300.0">mesoproterozoico</text><rect fill="#FEB342" height="461.2" width="1000" x="2000" y="538.8" /><text fill="white" text-anchor="middle" x="2500.0" y="769.4">neoproterozoico</text><rect fill="#F74370" height="900.0" width="1000" x="2000" y="1600.0" /><text fill="white" text-anchor="middle" x="2500.0" y="2050.0">paleoproterozoico</text></svg>