<?xml version="1.0" encoding="utf-8" ?>
<svg baseProfile="tiny" height="100%" version="1.2" width="100%" xmlns="http://www.w3.org/2000/svg" xmlns:ev="http://www.w3.org/2001/xml-events" xmlns:xlink="http://www.w3.org/1999/xlink"><defs /><rect fill="#9AD9DD" height="273.1428" width="1000" x="0" y="0" /><text fill="black" font-size="36" text-anchor="middle" x="500.0" y="136.57137935254738">fanerozoico</text><rect fill="#F74370" height="360.5111" width="1000" x="0" y="273.1428" /><text fill="black" font-size="36" text-anchor="middle" x="500.0" y="453.3983099612899">precambriano</text><rect fill="#F2F91D" height="181.9544" width="1000" x="1000" y="0" /><text fill="black" font-size="36" text-anchor="middle" x="1500.0" y="90.97719677709344">cenozoico</text><rect fill="#67C5CA" height="226.9284" width="1000" x="1000" y="181.9544" /><text fill="black" font-size="36" text-anchor="middle" x="1500.0" y="295.41859665878275">mesozoico</text><rect fill="#99C08D" height="245.7728" width="1000" x="1000" y="408.8828" /><text fill="black" font-size="36" text-anchor="middle" x="1500.0" y="531.7691758002879">paleozoico</text><rect fill="#F73563" height="329.2522" width="1000" x="1000" y="654.6556" /><text fill="black" font-size="36" text-anchor="middle" x="1500.0" y="819.2816460659043">proterozoico</text><rect fill="#F0047F" height="318.4975" width="1000" x="1000" y="983.9077" /><text fill="black" font-size="36" text-anchor="middle" x="1500.0" y="1143.1564998295244">archeano</text><rect fill="#AE027E" height="272.9165" width="1000" x="1000" y="1302.4053" /><text fill="black" font-size="36" text-anchor="middle" x="1500.0" y="1438.8634988490758">adeano</text><rect fill="#F9F97F" height="41.162" width="1000" x="2000" y="0" /><text fill="black" font-size="36" text-anchor="middle" x="2500.0" y="20.580985298161508">quaternario</text><rect fill="#FFE619" height="131.0906" width="1000" x="2000" y="41.162" /><text fill="black" font-size="36" text-anchor="middle" x="2500.0" y="106.70725206513009">neogene</text><rect fill="#FD9A52" height="163.3064" width="1000" x="2000" y="172.2525" /><text fill="black" font-size="36" text-anchor="middle" x="2500.0" y="253.90574716851214">paleogene</text><rect fill="#7FC64E" height="188.7054" width="1000" x="2000" y="335.559" /><text fill="black" font-size="36" text-anchor="middle" x="2500.0" y="429.9116797056349">cretacico</text><rect fill="#34B2C9" height="176.5669" width="1000" x="2000" y="524.2644" /><text fill="black" font-size="36" text-anchor="middle" x="2500.0" y="612.5478263461334">giurassico</text><rect fill="#812B92" height="170.3309" width="1000" x="2000" y="700.8313" /><text fill="black" font-size="36" text-anchor="middle" x="2500.0" y="785.9966829620613">triassico</text><rect fill="#F04028" height="167.2079" width="1000" x="2000" y="871.1621" /><text fill="black" font-size="36" text-anchor="middle" x="2500.0" y="954.766080686351">permiano</text><rect fill="#67A599" height="177.7862" width="1000" x="2000" y="1038.37" /><text fill="black" font-size="36" text-anchor="middle" x="2500.0" y="1127.2631307414756">carbonifero</text><rect fill="#CB8C37" height="178.3618" width="1000" x="2000" y="1216.1562" /><text fill="black" font-size="36" text-anchor="middle" x="2500.0" y="1305.337100209825">devoniano</text><rect fill="#B3E1B6" height="137.0698" width="1000" x="2000" y="1394.518" /><text fill="black" font-size="36" text-anchor="middle" x="2500.0" y="1463.0528930981413">siluriano</text><rect fill="#009270" height="164.0978" width="1000" x="2000" y="1531.5878" /><text fill="black" font-size="36" text-anchor="middle" x="2500.0" y="1613.6367005948368">ordoviciano</text><rect fill="#7FA056" height="171.5586" width="1000" x="2000" y="1695.6856" /><text fill="black" font-size="36" text-anchor="middle" x="2500.0" y="1781.464881057413">cambriano</text><rect fill="#FEB342" height="266.3889" width="1000" x="2000" y="1867.2442" /><text fill="black" font-size="36" text-anchor="middle" x="2500.0" y="2000.438623583206">neoproterozoico</text><rect fill="#FDB462" height="277.8151" width="1000" x="2000" y="2133.6331" /><text fill="black" font-size="36" text-anchor="middle" x="2500.0" y="2272.540651033521">mesoproterozoico</text><rect fill="#F74370" height="295.4243" width="1000" x="2000" y="2411.4482" /><text fill="black" font-size="36" text-anchor="middle" x="2500.0" y="2559.1603390246696">paleoproterozoico</text><rect fill="#F99BC1" height="247.7121" width="1000" x="2000" y="2706.8725" /><text fill="black" font-size="36" text-anchor="middle" x="2500.0" y="2830.7285272326185">neoarcheano</text><rect fill="#F768A9" height="260.206" width="1000" x="2000" y="2954.5846" /><text fill="black" font-size="36" text-anchor="middle" x="2500.0" y="3084.687589535">mesoarcheano</text><rect fill="#F4449F" height="260.206" width="1000" x="2000" y="3214.7906" /><text fill="black" font-size="36" text-anchor="middle" x="2500.0" y="3344.893588667796">paleoarcheano</text><rect fill="#DA037F" height="263.4477" width="1000" x="2000" y="3474.9966" /><text fill="black" font-size="36" text-anchor="middle" x="2500.0" y="3606.7204517422306">eoarcheano</text></svg>